<?xml version="1.0" encoding="UTF-8"?>
<svg id="Layer_2" data-name="Layer 2" xmlns="http://www.w3.org/2000/svg" viewBox="0 0 609.32 274.9">
  <defs>
    <style>
      .cls-1 {
        fill: #9a1d21;
      }

      .cls-1, .cls-2 {
        stroke-width: 0px;
      }

      .cls-3 {
        stroke: #2c2b7d;
        stroke-miterlimit: 10;
        stroke-width: 9px;
      }

      .cls-3, .cls-2 {
        fill: none;
      }
    </style>
  </defs>
  <g id="Layer_1-2" data-name="Layer 1">
    <g>
      <rect class="cls-2" width="609.32" height="274.9"/>
      <g>
        <path class="cls-3" d="M96.41,143.25c44.23-5.57,84.83,18.22,103.55,61.58,11.46,26.54,11.78,53.58,10.9,68.83"/>
        <path class="cls-3" d="M523.72,160.97c-38.22-4.82-73.3,15.75-89.48,53.22-9.9,22.94-10.18,46.3-9.42,59.48"/>
        <path class="cls-3" d="M323.02,150.88h-44.41c-13.31,0-24.1,13.56-24.1,30.28v92.5"/>
        <path class="cls-3" d="M306.19,72.94h39.19c2.19,0,4.38.3,6.43,1.05.64.23,1.24.49,1.82.77,17.97,8.69,16.77,41.93,16.46,47.17-.02.38-.03.76-.03,1.15v150.58"/>
        <circle class="cls-1" cx="96.41" cy="142.45" r="23.09"/>
        <circle class="cls-1" cx="317.87" cy="150.88" r="23.09"/>
        <circle class="cls-1" cx="306.19" cy="72.94" r="23.09"/>
        <circle class="cls-1" cx="523.72" cy="160.27" r="23.09"/>
      </g>
    </g>
  </g>
</svg>