<!DOCTYPE svg PUBLIC "-//W3C//DTD SVG 1.1//EN" "http://www.w3.org/Graphics/SVG/1.1/DTD/svg11.dtd">
<!-- Uploaded to: SVG Repo, www.svgrepo.com, Transformed by: SVG Repo Mixer Tools -->
<svg fill="#000000" width="64px" height="64px" viewBox="-2.4 -2.4 28.80 28.80" id="target" data-name="Flat Color" xmlns="http://www.w3.org/2000/svg" class="icon flat-color" stroke="#000000" stroke-width="0.00024000000000000003" transform="rotate(0)">
<g id="SVGRepo_bgCarrier" stroke-width="0"/>
<g id="SVGRepo_tracerCarrier" stroke-linecap="round" stroke-linejoin="round" stroke="#CCCCCC" stroke-width="0.048"/>
<g id="SVGRepo_iconCarrier">
<path id="primary" d="M10,22A8,8,0,0,1,10,6a6,6,0,0,1,1.18.1A1,1,0,0,1,12,7.26a1,1,0,0,1-1.16.8A4.91,4.91,0,0,0,10,8a6,6,0,1,0,6,6,4.91,4.91,0,0,0-.06-.82,1,1,0,0,1,.8-1.16,1,1,0,0,1,1.16.8A6.11,6.11,0,0,1,18,14,8,8,0,0,1,10,22Zm0-12a4,4,0,1,0,4,4A4,4,0,0,0,10,10Z" style="fill: #012681;"/>
<path id="secondary" d="M21.92,5.62A1,1,0,0,0,21,5H19V3a1,1,0,0,0-.62-.92,1,1,0,0,0-1.09.21l-3,3A1,1,0,0,0,14,6V8.59L9.49,13.1a1,1,0,0,0,0,1.41,1,1,0,0,0,1.41,0L15.41,10H18a1,1,0,0,0,.71-.29l3-3A1,1,0,0,0,21.92,5.62Z" style="fill: #BD2426;"/>
</g>
</svg>